<svg xmlns="http://www.w3.org/2000/svg" viewBox="0 0 660.01 569.98"><defs><style>.cls-1{fill:#ee6c00;}.cls-2{fill:#b95400;}.cls-3{fill:#be360c;}.cls-4{fill:#3e2723;}.cls-5{fill:#f8a725;}.cls-6{fill:#f6f6f6;}.cls-7{fill:#fe8980;}</style></defs><g id="Layer_2" data-name="Layer 2"><g id="Layer_1-2" data-name="Layer 1"><path class="cls-1" d="M270,569.74H240c-1.47-1.38-1.62-3.22-1.63-5,0-8.25-.27-16.5.11-24.75-.29-10-.31-20,0-30-.29-10-.32-19.94,0-29.91-.38-17-.05-34-.17-50.94-.05-7.34-.16-7.46-7.59-7.49-4.33,0-8.66,0-13,0-8.37-.07-9.32-1.05-9.4-9.6,0-4.66.05-9.33,0-14-.1-5.87-.5-6.29-6.23-6.37-5.49-.09-11,.11-16.48-.08-5.7-.2-7-1.49-7.2-7.22s-.14-11.32,0-17c.07-3.91-1.28-5.88-5.46-5.76-5.33.16-10.66.15-16,0-3.94-.11-5.28,1.68-5.22,5.41.1,5.66.13,11.32,0,17-.17,6.3-1.37,7.45-7.8,7.6-4.49.1-9,0-13.48,0-8.66,0-8.65,0-8.67,8.91,0,4.5,0,9,0,13.49,0,2.15,0,4.36-1.44,6.2a7.37,7.37,0,0,1-4.68,1.34c-6.78.15-13.55.13-20.33,0-1.82,0-3.65-.17-5-1.63q-.09-26.67-.16-53.33c0-6.67,0-6.67-6.43-6.67s-13-.15-19.44.07c-3.15.11-4.33-.65-4.21-4,.26-7.47,0-15,.14-22.43.07-2.8-.72-3.72-3.59-3.64-7.64.19-15.29-.07-22.93.12-2.88.08-3.64-.84-3.6-3.64.12-8.8,0-17.61-.1-26.41a7,7,0,0,1-1.48-4.61q-.18-10.38,0-20.77A7,7,0,0,1,29.9,270V240a7,7,0,0,1-1.48-4.62q-.18-10.38,0-20.76A7,7,0,0,1,29.9,210c.06-8.79.22-17.59.1-26.39,0-2.77.68-3.72,3.58-3.66,8.8.16,17.6,0,26.4,0,2.09-1.77,4.64-1.57,7.11-1.59,5-.05,9.94,0,14.91,0,6-.07,6.31-.34,6.37-6.58,0-5.13,0-10.27,0-15.4,0-2.3-.12-4.68,1.47-6.66a8.2,8.2,0,0,1,5.22-1.32c8.3,0,16.61-.28,24.91.13,8.32-.39,16.65-.15,25-.13a7.52,7.52,0,0,1,5.14,1.58H210a5.44,5.44,0,0,1,3.11-1.38,209.49,209.49,0,0,1,24.68.07,4.77,4.77,0,0,1,2.27.9c1.77,1.88,1.61,4.27,1.65,6.56.09,4.81,0,9.61,0,14.42,0,7.79,0,7.77,7.61,7.83,6.95.06,13.91-.21,20.87.15,8.28-.41,16.56-.16,24.84-.14a7.58,7.58,0,0,1,5.1,1.61l-.06-.06a7.51,7.51,0,0,1,1.6,5.09c0,8.25.28,16.51-.13,24.76.35,7.76.17,15.53.12,23.3,0,3.77,1.39,5.39,5.24,5.3,5.61-.14,11.24-.09,16.86,0,2.29,0,4.67-.12,6.62,1.5a7.7,7.7,0,0,1,1.29,5.16c-.44,8.3,1.33,16.7-1.12,24.9-1.85,1.84-4.26,1.66-6.56,1.7-5.83.11-11.66.07-17.48,0-3.31,0-4.88,1.29-4.83,4.73.08,5.82,0,11.65,0,17.47,0,3.2,1.5,4.44,4.57,4.45,5.83,0,11.65-.05,17.48.05,2.31,0,4.7-.15,6.66,1.52,1.33,1.88,1.28,4.07,1.3,6.22.05,6.13.08,12.26,0,18.39,0,1.81-.06,3.67-1.35,5.16-1.75,2-4.13,1.92-6.45,1.95-5.82.09-11.63.06-17.45,0-3.36,0-4.81,1.43-4.77,4.79.07,5.81,0,11.63,0,17.44,0,3.16,1.37,4.49,4.51,4.46,5.81-.05,11.63-.06,17.45,0,3.42,0,4.74-1.54,4.72-4.83,0-5.65,0-11.3,0-16.95,0-2.31-.11-4.7,1.65-6.59,1.91-1.72,4.29-1.61,6.61-1.63q8.49-.1,17,0c3.4,0,4.76-1.46,4.73-4.8q-.09-8.47,0-17c0-2.31-.16-4.69,1.32-6.73,2.94-2.13,6.35-1.39,9.59-1.47,4.79-.13,9.59-.09,14.37,0,3.38,0,4.74-1.45,4.7-4.78-.06-5.61-.07-11.23,0-16.84,0-2.29-.19-4.68,1.64-6.54q43.47-.07,86.93-.16c19.65,0,39.31-.07,59,.07,3.23,0,4.28-.8,4.16-4.11-.25-7.16.18-14.34-.18-21.48-.2-3.94,1.18-4.7,4.76-4.55,7,.28,14-.11,21,.16,3.46.13,4.49-.79,4.45-4.36-.2-17.15,0-34.3-.18-51.45,0-3.61,1-4.46,4.47-4.33,7.32.26,14.65,0,22,.13,2.73.06,3.7-.63,3.69-3.55q-.15-41.46,0-82.93c0-2.86-.81-3.69-3.64-3.61-7,.19-14-.3-21,.18-4.87.34-5.73-1.53-5.53-5.82.33-7,0-14,.14-21,.07-2.63-.73-3.43-3.36-3.37-7.5.16-15-.07-22.49.12-3,.07-4.32-.49-4.28-4,.19-17.49.14-35,0-52.46,0-2.79.7-3.73,3.59-3.66,8.82.23,17.64.18,26.47.23,1.71,1.71,1.59,3.93,1.62,6.08.09,5,0,10,0,14.94,0,7,.17,7.1,7.36,7.13,5,0,10,0,14.95,0,2.17,0,4.34.08,6.12,1.61L600,30c1.64,1.92,1.59,4.27,1.62,6.58.06,5.79,0,11.57,0,17.35,0,3.12,1.36,4.48,4.48,4.48,5.78,0,11.56,0,17.35,0,2.31,0,4.66,0,6.58,1.62l-.07-.07c1.78,2.09,1.69,4.63,1.69,7.13q0,68,0,135.92c0,2.49.09,5-1.69,7.12l.07-.06c-2.09,1.77-4.64,1.62-7.13,1.64-5.16.05-10.33-.06-15.49,0s-5.71.52-5.74,5.77c-.1,15,0,30-.06,45,0,2.64.25,5.38-1.64,7.63l.07-.06c-1.93,1.64-4.27,1.59-6.59,1.62-5.78.06-11.57,0-17.35,0-3.12,0-4.47,1.36-4.47,4.48,0,5.78,0,11.56,0,17.35,0,2.31,0,4.65-1.63,6.58l.07-.08c-1.92,1.65-4.26,1.6-6.58,1.63-5.78.06-11.56,0-17.35,0-3.11,0-4.47,1.35-4.48,4.47,0,5.79,0,11.57,0,17.35,0,2.32,0,4.66-1.61,6.59l.06-.07c-1.94,1.65-4.29,1.61-6.62,1.64-4.81,0-9.63,0-14.44,0-7.15,0-7.32.18-7.33,7.18q0,32.63,0,65.25c0,3,.12,6,0,9-.17,3.9,1.64,5.29,5.37,5.21,5.48-.11,11-.06,16.44,0,2.32,0,4.68,0,6.61,1.64l-.07-.07c1.78,2.08,1.69,4.62,1.69,7.11q0,53.15,0,106.29c0,2.31.1,4.68-1.31,6.74-.39.3-.72.76-1.23.82-9.68,1.14-19.37,1.73-29-.33-1.91-1.8-1.72-4.21-1.76-6.5-.11-5.8-.11-11.61,0-17.4.05-3.64-1.53-5.05-5.07-5-5.64.07-11.28.05-16.91,0a13.83,13.83,0,0,1-5.87-.83,3.3,3.3,0,0,1-1.33-1.34c-1.78-6.71-.62-13.56-.85-20.34-.23-7.11-.29-7.39-7.26-7.39q-81.11,0-162.2,0c-6.79,0-7.05.32-7.11,7,0,4.82,0,9.65,0,14.47,0,2.32.11,4.69-1.32,6.74-1.85,1.8-4.23,1.67-6.52,1.71-5.13.1-10.25,0-15.37.05-6.53,0-6.71.25-6.8,6.61-.09,7.27.2,14.54-.16,21.81.4,8.23.17,16.46.13,24.7C271.64,566.53,271.47,568.36,270,569.74Z"/><path d="M270,569.74q0-14.85.08-29.7c1.52-1.59,3.52-1.79,5.54-1.79,8.16,0,16.32-.26,24.47.14,8.65-.48,17.31-.19,26-.2q43.68-.08,87.38,0a56.12,56.12,0,0,1,6.48.21c8.29-.42,16.59-.28,24.89-.1,5.33.11,6.66,1.55,6.83,7,.19,6.3.11,12.61,0,18.92,0,2-.08,4-1.69,5.55-13.13,0-26.25.15-39.38.15q-67.54,0-135.1,0C273.66,569.89,271.84,569.79,270,569.74Z"/><path class="cls-2" d="M630,210.11V59.94c8.65,0,17.31.16,26,.06,2.74,0,4.09.25,4.08,3.65q-.18,71.37,0,142.76c0,3.4-1.34,3.68-4.08,3.65C647.28,210,638.62,210.08,630,210.11Z"/><path class="cls-2" d="M539.94,540q0-60.08,0-120.15c8.49,0,17,.3,25.47,0,3.87-.14,4.58,1.1,4.57,4.72-.14,37.29-.09,74.57-.08,111.86,0,1.16.1,2.33.15,3.49a6.91,6.91,0,0,1,1.48,4.6c.12,6.9.15,13.8,0,20.71a5.91,5.91,0,0,1-1.61,4.52H540a3.9,3.9,0,0,1-1.36-2.57,180.32,180.32,0,0,1,0-24.6A4.17,4.17,0,0,1,539.94,540Z"/><path d="M150,569.74q-43.47.07-86.95.21c-2.39,0-3.12-.63-3.08-3.05.15-7.66.23-15.33,0-23-.11-3.29.85-4.1,4.1-4.08,18.65.11,37.31,0,56-.08a5.79,5.79,0,0,1,3.65-1.4c7.77-.22,15.55-.32,23.32.06a5.62,5.62,0,0,1,3.22,1.18,7.77,7.77,0,0,1,1.46,5.16q.18,10,0,19.93C151.65,566.51,151.51,568.35,150,569.74Z"/><path class="cls-3" d="M450,569.74c0-8.44-.21-16.89.1-25.32.14-3.89-1.21-4.68-4.79-4.59-8.43.2-16.87,0-25.31-.08-.22-.25-.6-.47-.64-.74-1.49-9.81-2.2-19.61.4-29.36,2.16-1.63,4.71-1.43,7.18-1.44q22.9-.06,45.81,0c2.45,0,5-.31,7.07,1.63l.28.13a7,7,0,0,1,1.54,5.09c0,8.27.27,16.53-.13,24.8.38,8.27.16,16.54.12,24.82,0,1.82-.16,3.66-1.63,5Z"/><path class="cls-4" d="M329.94,240.15c-8.6-.05-17.2-.24-25.8-.08-3.2.05-4.3-.84-4.2-4.15.23-8.59.12-17.19.15-25.79.25-.22.47-.58.75-.63,9.75-1.74,19.49-2.39,29.18.36,18.47,0,36.94.21,55.4,0,3.67,0,4.84.77,4.66,4.59-.34,7.31-.22,14.64,0,22,.07,2.82-.76,3.64-3.59,3.6-8.81-.13-17.63,0-26.45.08a7,7,0,0,1-4.62,1.5q-10.41.18-20.82,0A7.16,7.16,0,0,1,329.94,240.15Z"/><path class="cls-2" d="M540.06,419.91c-8.49,0-17-.09-25.45.09-3.27.07-4.74-.66-4.72-4.36q.19-40.68,0-81.36c0-3.69,1.44-4.43,4.71-4.36,8.48.18,17,.08,25.46.09Z"/><path class="cls-4" d="M329.94,300.13c-8.49-.05-17-.25-25.45-.08-3.35.07-4.71-.67-4.57-4.34.29-7.14.29-14.31,0-21.45-.14-3.67,1.22-4.41,4.57-4.35,8.48.18,17,0,25.45-.07a6.63,6.63,0,0,1,4.13-1.46q10.9-.27,21.81,0a6.49,6.49,0,0,1,4.13,1.46l30,.31c0,8.6-.14,17.2.08,25.79.09,3.33-1.06,4.16-4.23,4.11-8.59-.15-17.18,0-25.78.08a7.18,7.18,0,0,1-4.63,1.49q-10.43.19-20.85,0A7.18,7.18,0,0,1,329.94,300.13Z"/><path class="cls-1" d="M150,540l-30-.24q.09-29.93.17-59.83a3.74,3.74,0,0,1,2.58-1.33c8.86-.27,17.74-1,26.58.46a3.34,3.34,0,0,1,1.41,1.3c1.89,9.85.64,19.8.77,29.71.41,8.29.18,16.59.13,24.89C151.66,536.77,151.55,538.63,150,540Z"/><path class="cls-2" d="M150,540l.08-30.09c.26-.21.49-.56.78-.61,9.79-1.57,19.57-2.11,29.33.3a7.38,7.38,0,0,1,1.46,5.1c0,8.37.29,16.75-.12,25.12.39,8.12.14,16.25.14,24.37,0,2-.05,4-1.65,5.56H150Q150,554.86,150,540Z"/><path class="cls-2" d="M90.07,150.05c0,8.6-.14,17.21,0,25.81.07,3.3-1.13,4.28-4.32,4.21-8.6-.19-17.2-.1-25.81-.12,0-18.44.16-36.89,0-55.33,0-3.64.75-4.83,4.59-4.69,8.46.3,16.94,0,25.41,0l.7.68C92.05,130.46,93.09,140.3,90.07,150.05Z"/><path class="cls-2" d="M600,270.09c0-18.44.06-36.88-.11-55.32,0-3.67,1-5,4.75-4.84,8.47.26,17,.1,25.42.12,0,18.45-.18,36.91,0,55.36,0,3.67-.79,4.81-4.6,4.68C617,269.8,608.46,270.06,600,270.09Z"/><path d="M180,569.74l.14-29.83c1.84-1.85,4.24-1.69,6.53-1.7q23.31-.08,46.62,0c2.29,0,4.69-.17,6.53,1.69q.07,14.91.16,29.83Z"/><path d="M480,569.74l.15-29.83a3.87,3.87,0,0,1,2.56-1.36,168.37,168.37,0,0,1,25.11.08,4.47,4.47,0,0,1,2.17,1.11l30,.25q0,14.88,0,29.75Z"/><path class="cls-2" d="M300.11,180,270,180c-1.53-1.58-1.64-3.59-1.65-5.6q-.1-24.43,0-48.89a9,9,0,0,1,1-4.82l.72-.69c8.64,0,17.29.22,25.93,0,3.37-.09,4.07,1,4.05,4.19C300,142.75,300.08,161.36,300.11,180Z"/><path d="M570,569.74l.15-29.83c18.47,0,36.94.14,55.41-.11,3.91,0,4.65,1.13,4.51,4.7-.29,7.31-.15,14.64,0,22,0,2.29-.15,3.54-3.11,3.51C607.89,569.77,588.92,569.79,570,569.74Z"/><path class="cls-2" d="M600.05,30c-8.33,0-16.67-.21-25,.13-4.34.18-5.34-1.43-5.2-5.44.27-8.15.08-16.32.09-24.48,8.8-.05,17.61,0,26.41-.22,2.82-.07,3.68.72,3.64,3.59C599.86,12.4,600,21.21,600.05,30Z"/><path class="cls-2" d="M630,60c-8.63,0-17.26-.09-25.88.1-3.26.07-4.35-1-4.28-4.28.19-8.62.09-17.25.1-25.88,8.8,0,17.61.19,26.41,0,2.83,0,3.65.78,3.61,3.61C629.85,42.4,630,51.21,630,60Z"/><path class="cls-2" d="M239.94,120c0-8.79.1-17.58.05-26.38,0-2.27.13-3.67,3.08-3.59Q255,90.27,267,90c3-.08,3.1,1.33,3.09,3.6-.06,8.79,0,17.58,0,26.37l-.2.2a3.07,3.07,0,0,1-1.68,1c-9.21.62-18.43,1.42-27.6-.5Z"/><path class="cls-2" d="M150.11,150H120a3.15,3.15,0,0,1-1-1.67c-.75-9.23-1.47-18.47.44-27.67l.7-.67c8.8,0,17.59.17,26.38,0,2.84,0,3.65.78,3.6,3.61C150,132.37,150.09,141.16,150.11,150Z"/><path class="cls-2" d="M240,150.07,210,150c0-8.8.16-17.59,0-26.38-.05-2.83.76-3.66,3.6-3.61,8.79.15,17.59,0,26.38,0l.2.2a5.21,5.21,0,0,1,1.43,3.6c.25,7.6.3,15.2,0,22.79A4.62,4.62,0,0,1,240,150.07Z"/><path class="cls-2" d="M90,120c0-8.79.11-17.58,0-26.37,0-2.27.13-3.68,3.08-3.6Q105,90.27,117,90c3-.08,3.1,1.33,3.09,3.6-.06,8.79,0,17.58,0,26.37l-.2.2a5.22,5.22,0,0,1-3.63,1.43q-11.25.38-22.48,0a5.24,5.24,0,0,1-3.64-1.43Z"/><path class="cls-2" d="M330,209.86l-29.93.27q0-15.12,0-30.22c8.62,0,17.24.21,25.86,0,3.16-.06,4.26.7,4.17,4.06C329.84,192.61,330,201.24,330,209.86Z"/><path class="cls-2" d="M90.22,420,120,420a2.88,2.88,0,0,1,1.28,2.05c.49,9.08,1.4,18.18-.52,27.21L120,450c-8.81,0-17.63-.12-26.44.05-2.85.06-3.67-.79-3.6-3.62C90.21,437.57,90.16,428.76,90.22,420Z"/><path class="cls-4" d="M29.9,270v30c-8.78,0-17.57-.06-26.35,0-2.31,0-3.62-.18-3.55-3.1Q.32,285,0,273.05c-.07-2.92,1.24-3.12,3.55-3.1C12.33,270.05,21.12,270,29.9,270Z"/><path class="cls-2" d="M150.1,479.9l-29.89,0L120,450l0,0a6.54,6.54,0,0,1,4.58-1.63c7.13-.14,14.26-.23,21.39,0,3,.12,5.27,1.36,5.46,4.62a184.76,184.76,0,0,1-.05,24.34A3.87,3.87,0,0,1,150.1,479.9Z"/><path class="cls-2" d="M360,269.84H329.94V240.15H360Z"/><path class="cls-3" d="M570,300.09c0-8.63.1-17.27-.09-25.89-.07-3.26,1-4.34,4.27-4.27,8.62.19,17.26.09,25.88.1,0,8.8-.18,17.61,0,26.41,0,2.84-.79,3.65-3.62,3.6C587.59,299.9,578.78,300.05,570,300.09Z"/><path class="cls-3" d="M540,330.08c0-8.63.09-17.26-.11-25.89-.07-3.26,1-4.34,4.28-4.27,8.62.19,17.25.08,25.88.09,0,8.81-.18,17.61,0,26.41,0,2.83-.76,3.66-3.6,3.62C557.61,329.89,548.8,330,540,330.08Z"/><path class="cls-4" d="M29.9,210v30c-8.78,0-17.57-.06-26.35,0-2.31,0-3.62-.18-3.55-3.1Q.32,225,0,213.07c-.07-2.92,1.24-3.13,3.55-3.1C12.33,210.06,21.12,210,29.9,210Z"/><path class="cls-5" d="M150.1,479.9c0-8.6-.17-17.2,0-25.8.07-3.26-1-4.3-4.24-4.23-8.6.19-17.2.06-25.8.05Q120,435,120,420c0-8.33.24-16.66,0-25-.1-3.81.84-5.36,5-5.15,6.48.34,13-.24,19.48.2,4.84.33,5.92-1.54,5.7-5.95-.32-6.64,0-13.32-.12-20-.06-2.82.55-4.3,3.82-4.22,7.5.18,15,.14,22.49,0,2.82-.05,3.81,1,3.76,3.77-.13,7.33.09,14.66-.1,22-.08,3.21.91,4.44,4.24,4.33,6.82-.2,13.67.16,20.49-.14,4-.17,5.64.89,5.42,5.21-.35,6.65.16,13.34-.19,20-.21,4.15,1.37,5.1,5.17,5,6.82-.26,13.66.1,20.48-.14,3.56-.13,4.53,1.15,4.5,4.58-.14,18.49-.07,37-.08,55.47-1.88,1.76-4.26,1.71-6.58,1.71q-38.41.06-76.82,0c-2.32,0-4.69,0-6.56-1.76Z"/><path class="cls-2" d="M479.79,509.85l-59.91.12c-1.88,1.79-4.28,1.65-6.59,1.65q-53.4.06-106.79,0c-2,0-4,0-5.82-1-.24-.23-.47-.47-.71-.71,0-8.16.28-16.34-.07-24.48-.19-4.47,1.22-5.59,5.61-5.57,43.48.16,87,.1,130.45.1,13.16,0,26.32.1,39.48-.07,3.44,0,4.71,1,4.59,4.51C479.77,492.86,479.85,501.36,479.79,509.85Z"/><path class="cls-3" d="M150,479.88l90,.05L239.94,510c-1.88,1.76-4.27,1.63-6.57,1.64q-23.34.08-46.67,0c-2.3,0-4.69.14-6.56-1.64l-30-.08Z"/><path class="cls-3" d="M240,150.07q.08-15,.16-29.92h29.75Q270,150,270,180c-8.66,0-17.32-.06-26,.11-3,.06-4.1-.95-4-4C240.11,167.39,240,158.73,240,150.07Z"/><path class="cls-6" d="M180.14,510h59.8q0,15-.08,29.93H180.18Q180.16,524.94,180.14,510Z"/><path class="cls-3" d="M90.17,120.15h29.76q0,14.91.1,29.81l-30,.09Q90.12,135.1,90.17,120.15Z"/><path class="cls-7" d="M150.05,299.85H120a4.57,4.57,0,0,1-1.44-3.07c-.45-7.75-.35-15.5-.06-23.25a5.55,5.55,0,0,1,1.56-3.56L120,270a5.64,5.64,0,0,1,3.58-1.58q11.44-.48,22.88,0a5.64,5.64,0,0,1,3.58,1.58L150,270a5.15,5.15,0,0,1,1.48,3.07,194,194,0,0,1-.06,24.23A4.1,4.1,0,0,1,150.05,299.85Z"/><path class="cls-4" d="M150.06,270H120c0-8.79.11-17.58,0-26.37,0-2.74.71-3.8,3.61-3.73,7.62.17,15.26.17,22.88,0,2.9-.07,3.65,1,3.61,3.73C150,252.46,150.05,261.25,150.06,270Z"/><path class="cls-3" d="M329.94,300.13h30.11c0,8.32-.26,16.64,0,24.95.15,4.12-1.35,5.08-5.15,5-8.32-.25-16.64-.09-25-.1l0,0Z"/><path class="cls-2" d="M300,539.75l-29.93.29c0-8.45.1-16.89-.15-25.33-.11-3.62.87-5,4.7-4.87,8.44.25,16.89.05,25.33,0l.1.1a5.91,5.91,0,0,1,1.52,4.07c.2,7.22.21,14.45,0,21.67A5.44,5.44,0,0,1,300,539.75Z"/><path class="cls-4" d="M240,225c0,3.83-.11,7.66,0,11.49.1,2.46-.53,3.6-3.29,3.55q-11.74-.24-23.49,0c-2.77,0-3.32-1.12-3.28-3.56.11-7.66.16-15.33,0-23-.07-3,1.16-3.59,3.83-3.54,7.49.14,15,.2,22.48,0,3.25-.09,3.95,1.2,3.8,4.09C239.87,217.67,240,221.34,240,225Z"/><path class="cls-6" d="M510,539.74l-29.84.17q0-15-.05-29.93c8.77,0,17.54.06,26.31-.12,2.78-.06,3.7.69,3.64,3.57C509.84,522.2,510,531,510,539.74Z"/><path class="cls-4" d="M60.06,223.73c.31-3.82-2-9.87.8-12.7,3-3.1,9.14-.76,13.91-1,3.82-.18,7.66.09,11.49-.08,2.63-.11,3.93.46,3.85,3.51-.19,7.66-.12,15.33,0,23,0,2.4-.44,3.64-3.26,3.59q-11.73-.24-23.48,0c-2.73,0-3.43-1-3.33-3.52C60.17,232.54,60.06,228.54,60.06,223.73Z"/><path class="cls-3" d="M330,330c0,8.47-.11,16.95.08,25.42.07,3.32-.74,4.79-4.4,4.67-7.31-.26-14.63-.17-21.94,0-2.8.05-3.8-.95-3.76-3.75.13-7.48.17-15,0-22.44-.08-3.19,1.26-3.93,4.15-3.88,8.64.13,17.28.06,25.92.06Z"/><path class="cls-4" d="M150.05,299.85,150,270c8.78,0,17.57.1,26.35,0,2.72,0,3.82.66,3.75,3.58q-.27,11.43,0,22.87c.06,2.85-.9,3.7-3.69,3.64C167.62,299.84,158.83,299.89,150.05,299.85Z"/><path class="cls-4" d="M120.09,270,120,299.85c-8.78,0-17.56,0-26.34.18-2.79.06-3.76-.79-3.69-3.64.16-7.62.17-15.25,0-22.87-.06-2.92,1-3.62,3.75-3.58C102.52,270.07,111.31,270,120.09,270Z"/><path class="cls-6" d="M300,539.75q0-14.88.05-29.77H419.88l.09,29.78Z"/></g></g></svg>